<svg id="8619d7f2-8fad-491d-8100-9429b30ba01e" data-name="Livello 1" xmlns="http://www.w3.org/2000/svg" viewBox="0 0 200 201">
  <title>Senza titolo-1</title>
  <g>
    <path d="M169,41.41v-12A20.72,20.72,0,0,0,148.42,9h0A20.57,20.57,0,0,0,128,29.46V40H89V29.46A20.29,20.29,0,0,0,68.92,9h0C57.73,9,49,18.27,49,29.46v12C26,47,9,65.73,9,88v2c0,24,19.72,43.94,45.53,47.65A35.21,35.21,0,0,0,49,156.57v15.77C49,192.95,66.6,210,88.73,210h39.88c22.12,0,40.39-17.05,40.39-37.66V156.57a35.21,35.21,0,0,0-5.53-18.92C189.28,133.94,209,114,209,90V88C209,65.73,192,47,169,41.41Zm6,61.14c0,9.19-8,16.44-17.94,16.44H63.24c-10,0-18.24-7.26-18.24-16.44V75.7C45,66.52,53.29,59,63.24,59h93.82C167,59,175,66.52,175,75.7v26.86Z" transform="translate(-9 -9)" style="fill: #fff"/>
    <path d="M157.06,59H63.24C53.29,59,45,66.52,45,75.7v26.86C45,111.74,53.29,119,63.24,119h93.82c10,0,17.94-7.26,17.94-16.44V75.7C175,66.52,167,59,157.06,59ZM158,65.2a2.8,2.8,0,0,1-2.8,2.8H73.8A2.8,2.8,0,0,1,71,65.2V64.8A2.8,2.8,0,0,1,73.8,62H155.2a2.8,2.8,0,0,1,2.8,2.8V65.2ZM69,66.81A1.19,1.19,0,0,1,67.81,68H62.19A1.19,1.19,0,0,1,61,66.81V63.19A1.19,1.19,0,0,1,62.19,62h5.63A1.19,1.19,0,0,1,69,63.19v3.63Zm89,46a3.19,3.19,0,0,1-3.19,3.19H64.19A3.19,3.19,0,0,1,61,112.81V72.19A3.19,3.19,0,0,1,64.19,69h90.63A3.19,3.19,0,0,1,158,72.19v40.63Z" transform="translate(-9 -9)" style="fill: #b9dcff"/>
    <rect x="52" y="53" width="8" height="6" rx="1.19" ry="1.19" style="fill: #fff"/>
    <rect x="62" y="53" width="87" height="6" rx="2.8" ry="2.8" style="fill: #fff"/>
    <path d="M158,72.19A3.19,3.19,0,0,0,154.81,69H64.19A3.19,3.19,0,0,0,61,72.19v40.63A3.19,3.19,0,0,0,64.19,116h90.63a3.19,3.19,0,0,0,3.19-3.19V72.19Zm-92,2.5a0.31,0.31,0,0,1-.31.31H63.31A0.31,0.31,0,0,1,63,74.69V74.31A0.31,0.31,0,0,1,63.31,74h2.38a0.31,0.31,0,0,1,.31.31v0.38Z" transform="translate(-9 -9)" style="fill: #333"/>
    <rect x="54" y="65" width="3" height="1" rx="0.31" ry="0.31" style="fill: #fff"/>
  </g>
</svg>
